<?xml version="1.0" encoding="UTF-8" standalone="no"?>
<!-- Created with Inkscape (http://www.inkscape.org/) -->

<svg
   version="1.1"
   id="svg1"
   width="70mm"
   height="100mm"
   viewBox="0 0 70 100"
   sodipodi:docname="cardbacks.svg"
   inkscape:version="1.4.1 (1:1.4.1+202503302257+93de688d07)"
   xml:space="preserve"
   xmlns:inkscape="http://www.inkscape.org/namespaces/inkscape"
   xmlns:sodipodi="http://sodipodi.sourceforge.net/DTD/sodipodi-0.dtd"
   xmlns:xlink="http://www.w3.org/1999/xlink"
   xmlns="http://www.w3.org/2000/svg"
   xmlns:svg="http://www.w3.org/2000/svg"><defs
     id="defs1"><linearGradient
       id="swatch17"
       inkscape:swatch="solid"
       gradientTransform="matrix(0.26458333,0,0,0.26458333,-1.5231424,55.067455)"><stop
         style="stop-color:#ffffff;stop-opacity:0;"
         offset="0"
         id="stop17" /></linearGradient></defs><sodipodi:namedview
     id="namedview1"
     pagecolor="#ffffff"
     bordercolor="#000000"
     borderopacity="0.25"
     inkscape:showpageshadow="2"
     inkscape:pageopacity="0.0"
     inkscape:pagecheckerboard="0"
     inkscape:deskcolor="#d1d1d1"
     inkscape:zoom="0.62860648"
     inkscape:cx="680.87113"
     inkscape:cy="37.384279"
     inkscape:window-width="1920"
     inkscape:window-height="1131"
     inkscape:window-x="0"
     inkscape:window-y="0"
     inkscape:window-maximized="1"
     inkscape:current-layer="g1"
     inkscape:document-units="mm"
     showgrid="false"><inkscape:page
       x="0"
       y="0"
       width="70"
       height="100"
       id="page23"
       margin="0"
       bleed="0"
       inkscape:export-filename="action card.png"
       inkscape:export-xdpi="96"
       inkscape:export-ydpi="96" /><inkscape:page
       x="80"
       y="0"
       width="70"
       height="100"
       id="page24"
       margin="0"
       bleed="0" /><inkscape:page
       x="160"
       y="0"
       width="70"
       height="100"
       id="page25"
       margin="0"
       bleed="0" /><inkscape:page
       x="240"
       y="0"
       width="70"
       height="100"
       id="page26"
       margin="0"
       bleed="0" /><inkscape:page
       x="320"
       y="0"
       width="70"
       height="100"
       id="page66"
       margin="0"
       bleed="0" /></sodipodi:namedview><g
     inkscape:groupmode="layer"
     inkscape:label="Image"
     id="g1"><g
       id="g17"
       transform="translate(89.999998)"><rect
         style="fill:#15034d;fill-opacity:1;stroke-width:1.51181;stroke-linejoin:round;paint-order:markers stroke fill"
         id="rect4"
         width="70"
         height="100"
         x="70"
         y="0" /><path
         d="m 113.01177,46.464782 c -2.36378,-0.23007 -4.47654,1.192355 -4.95766,3.535218 0,0.711239 2.82398,1.652557 5.41787,1.652557 2.59389,0 4.93675,-1.652557 4.93675,-2.11276 0,-0.481091 -1.63164,-2.823994 -5.39696,-3.075015 m -16.002599,0 c -3.76532,0.251021 -5.41787,2.363782 -5.41787,3.054094 0,0.481092 2.57296,2.133681 4.93674,2.133681 2.36379,0 5.417879,-0.941333 5.417879,-1.652557 -0.48109,-2.342862 -2.823989,-3.765319 -4.936749,-3.535218 m 18.345459,12.948514 c -3.99542,0 -6.5893,-4.706653 -10.35462,-4.706653 -3.76532,0 -6.589309,4.706653 -10.354629,4.706653 -4.936744,0 -8.471961,-4.476543 -8.471961,-12.467391 0,-4.936746 1.422457,-6.359202 7.760741,-6.359202 6.338289,0 8.011759,2.593883 11.065849,2.593883 3.0541,0 4.93676,-2.593883 11.06586,-2.593883 6.12911,0 7.76071,1.652557 7.76071,6.359202 0,7.990848 -3.53519,12.467391 -8.47195,12.467391 z"
         id="path1"
         style="fill:#ffffff;fill-opacity:1;stroke-width:0.264583" /><circle
         style="fill:none;fill-opacity:1;stroke:url(#swatch17);stroke-width:0.3;stroke-linejoin:round;stroke-opacity:1;paint-order:markers stroke fill"
         id="path4"
         cx="50"
         cy="-105"
         r="27.768059"
         transform="rotate(90)" /><text
         xml:space="preserve"
         style="font-weight:bold;font-size:16.9333px;line-height:1;font-family:'Minion Pro';-inkscape-font-specification:'Minion Pro Bold';font-variant-numeric:tabular-nums;text-align:center;text-decoration-color:#000000;letter-spacing:-1.05833px;word-spacing:0px;writing-mode:lr-tb;direction:ltr;text-anchor:middle;fill:#ffffff;fill-opacity:1;stroke-width:1.51181;stroke-linejoin:round;paint-order:markers stroke fill"
         id="text52-8"><textPath
           xlink:href="#path4"
           startOffset="50%"
           id="textPath15"
           style="font-style:normal;font-variant:normal;font-weight:normal;font-stretch:normal;font-size:16.9333px;line-height:1;font-family:'Linux Libertine O';-inkscape-font-specification:'Linux Libertine O';text-align:center;letter-spacing:-1.05833px;text-anchor:middle;fill:#ffffff;fill-opacity:1">Secret</textPath></text><path
         id="circle15"
         style="fill:none;stroke:url(#swatch17);stroke-width:0.3;stroke-linejoin:round;paint-order:markers stroke fill"
         d="m 104.99999,14.999995 a 35.000002,35.000002 0 0 0 -34.999996,35.000004 35.000002,35.000002 0 0 0 34.999996,35 35.000002,35.000002 0 0 0 35,-35 35.000002,35.000002 0 0 0 -35,-35.000004 z" /><text
         xml:space="preserve"
         style="font-size:16.9333px;line-height:1.1;font-family:'Linux Libertine O';-inkscape-font-specification:'Linux Libertine O';font-variant-numeric:tabular-nums;text-align:center;text-decoration-color:#000000;letter-spacing:1.05833px;word-spacing:0px;writing-mode:lr-tb;direction:ltr;text-anchor:middle;fill:none;fill-opacity:1;stroke:#ffffff;stroke-width:0.3;stroke-linejoin:round;stroke-opacity:1;paint-order:markers stroke fill"
         id="text17"><textPath
           xlink:href="#circle15"
           startOffset="50%"
           id="textPath17"><tspan
             id="tspan17"
             style="letter-spacing:1.05833px;fill:#ffffff;fill-opacity:1;stroke:none;stroke-width:0.3">Action</tspan></textPath></text></g><g
       id="g53"><rect
         style="fill:#ed350d;fill-opacity:1;stroke-width:1.51181;stroke-linejoin:round;paint-order:markers stroke fill"
         id="rect21"
         width="70"
         height="100"
         x="240"
         y="0" /><path
         id="path28"
         style="baseline-shift:baseline;display:inline;overflow:visible;vector-effect:none;fill:#ffffff;stroke-width:1;stroke-linejoin:round;paint-order:markers stroke fill;enable-background:accumulate;stop-color:#000000"
         d="m 275.0254,19.67545 a 0.61368468,0.61368468 0 0 0 -0.61396,0.61355 v 6.92273 l -19.47561,5.21785 a 2.0458161,2.0458161 0 0 0 -0.58691,3.69225 l -5.05505,18.0925 a 1.0229101,1.0229101 0 0 0 -0.37253,1.6588 c 3.5845,3.78013 9.50412,3.78014 13.08861,0 a 1.0229101,1.0229101 0 0 0 -0.37041,-1.65796 l -4.96415,-17.7631 h 36.70002 l -4.96414,17.76226 a 1.0229101,1.0229101 0 0 0 -0.37253,1.6588 c 3.58449,3.78013 9.50624,3.78014 13.09072,0 a 1.0229101,1.0229101 0 0 0 -0.37295,-1.6588 l -5.05632,-18.0925 a 2.0458161,2.0458161 0 0 0 -0.58691,-3.69225 L 275.63895,27.21173 V 20.289 a 0.61368468,0.61368468 0 0 0 -0.61355,-0.61355 z m 19.55849,17.00918 4.87873,17.46078 h -9.75704 z m -39.11824,0.003 4.87915,17.45782 h -9.75831 z" /><text
         xml:space="preserve"
         style="font-size:12.7px;line-height:1.1;font-family:'Linux Libertine O';-inkscape-font-specification:'Linux Libertine O';font-variant-numeric:tabular-nums;text-align:center;text-decoration-color:#000000;letter-spacing:0px;word-spacing:0px;writing-mode:lr-tb;direction:ltr;text-anchor:middle;fill:#ffffff;fill-opacity:1;stroke:#ffffff;stroke-width:1.5;stroke-linecap:round;stroke-linejoin:round;stroke-dasharray:none;stroke-opacity:1;paint-order:markers stroke fill"
         x="275.02539"
         y="72.751091"
         id="text52"><tspan
           sodipodi:role="line"
           id="tspan52"
           style="font-size:12.7px;letter-spacing:0px;stroke:none;stroke-width:1.5"
           x="275.02539"
           y="72.751091">Punishment</tspan><tspan
           sodipodi:role="line"
           style="font-size:12.7px;letter-spacing:0px;stroke:none;stroke-width:1.5"
           x="275.02539"
           y="86.721092"
           id="tspan1">Vetoed</tspan></text></g><g
       transform="matrix(0.00338182,0,0,-0.00338182,93.737089,71.644238)"
       fill="#000000"
       stroke="none"
       id="g2"
       style="stroke-width:10.4316"><rect
         style="fill:#84b5f4;fill-opacity:1;stroke-width:447.04;stroke-linejoin:round;paint-order:markers stroke fill"
         id="rect21-7"
         width="20698.914"
         height="29569.877"
         x="-4062.0405"
         y="-21185.113"
         transform="scale(1,-1)" /><path
         d="m 6547,12789 c -239,-23 -521,-105 -752,-219 -249,-122 -442,-264 -639,-471 l -116,-122 -132,66 c -304,150 -581,221 -913,234 -875,34 -1697,-461 -2080,-1252 -72,-148 -132,-315 -165,-457 l -22,-98 -42,-11 c -329,-85 -635,-241 -880,-448 C 708,9929 560,9779 489,9690 287,9439 125,9101 56,8787 12,8589 6,8524 6,8295 6,8057 22,7930 75,7726 186,7299 448,6885 790,6597 c 614,-517 1443,-666 2200,-395 124,44 332,148 445,222 l 98,64 66,-18 c 225,-62 503,-89 733,-71 138,11 336,44 428,71 30,9 39,7 60,-10 301,-240 592,-385 935,-465 178,-41 268,-50 510,-50 259,1 382,17 595,79 278,80 496,190 734,368 l 119,90 46,-26 c 108,-62 283,-146 371,-179 544,-203 1127,-190 1661,39 71,31 137,53 145,50 39,-15 273,-36 402,-36 601,0 1146,225 1572,650 608,605 814,1479 539,2293 -285,848 -1052,1441 -1953,1509 l -151,11 -130,127 c -263,257 -530,420 -864,530 -157,52 -357,94 -502,106 l -85,6 -34,67 c -52,101 -183,291 -267,387 -217,248 -424,409 -707,550 -373,185 -794,263 -1209,223 z"
         id="path1-9"
         style="stroke-width:10.4316" /><path
         d="m 5219,5426 c -15,-9 -30,-23 -34,-33 -3,-10 -118,-441 -255,-958 -137,-517 -303,-1146 -369,-1397 -81,-305 -119,-466 -115,-483 8,-33 49,-65 83,-65 14,0 214,45 444,101 230,56 420,99 423,97 2,-3 -310,-578 -693,-1279 C 4221,528 4005,124 4002,98 c -3,-31 1,-43 26,-68 32,-32 63,-37 99,-17 12,7 915,855 2007,1885 1323,1248 1988,1882 1992,1899 9,35 -6,72 -38,96 -28,21 -29,21 -190,4 -90,-9 -401,-42 -692,-72 -291,-31 -530,-54 -531,-53 -1,2 180,341 402,753 246,455 407,765 410,787 5,32 1,41 -25,68 -30,30 -31,30 -144,30 -62,0 -363,4 -668,10 -1284,21 -1403,22 -1431,6 z"
         id="path2"
         style="stroke-width:10.4316" /><text
         xml:space="preserve"
         style="font-size:3755.37px;line-height:4.75;font-family:'Linux Libertine O';-inkscape-font-specification:'Linux Libertine O';font-variant-numeric:tabular-nums;text-align:center;text-decoration-color:#000000;letter-spacing:0px;word-spacing:0px;writing-mode:lr-tb;direction:ltr;text-anchor:middle;fill:#84b5f4;fill-opacity:1;stroke:none;stroke-width:443.548;stroke-linecap:round;stroke-linejoin:round;stroke-dasharray:none;stroke-opacity:1;paint-order:markers stroke fill"
         x="6736.1836"
         y="-14500.506"
         id="text53"
         transform="scale(1,-1)"><tspan
           sodipodi:role="line"
           id="tspan53"
           style="line-height:4.75;fill:#000000;fill-opacity:1;stroke-width:443.548"
           x="6736.1841"
           y="-14500.506">Random     </tspan><tspan
           sodipodi:role="line"
           style="line-height:4.75;fill:#000000;fill-opacity:1;stroke-width:443.548"
           x="6736.1836"
           y="3337.502"
           id="tspan54">       Event</tspan></text></g><g
       id="g3"><rect
         style="fill:#f9e232;stroke-width:1.51181;stroke-linejoin:round;paint-order:markers stroke fill"
         id="rect1"
         width="70"
         height="100"
         x="0"
         y="0" /><text
         xml:space="preserve"
         style="font-size:12.7px;line-height:1;font-family:'Linux Libertine O';-inkscape-font-specification:'Linux Libertine O';font-variant-numeric:tabular-nums;text-align:center;text-decoration-color:#000000;letter-spacing:0px;word-spacing:0px;writing-mode:lr-tb;direction:ltr;text-anchor:middle;fill:#000000;fill-opacity:1;stroke:none;stroke-width:1.5;stroke-linecap:round;stroke-linejoin:round;stroke-dasharray:none;stroke-opacity:1;paint-order:markers stroke fill"
         x="35.069847"
         y="26.335918"
         id="text63"><tspan
           sodipodi:role="line"
           style="line-height:1;stroke-width:1.5"
           x="35.069847"
           y="26.335918"
           id="tspan64">Action</tspan><tspan
           sodipodi:role="line"
           style="line-height:1;stroke-width:1.5"
           x="35.069847"
           y="39.035919"
           id="tspan65">Card</tspan></text><g
         id="g66"><path
           id="path59"
           style="fill:#000000;fill-opacity:1;stroke:none;stroke-width:1.50001;stroke-linecap:round;stroke-linejoin:round;stroke-dasharray:none;stroke-opacity:1;paint-order:markers stroke fill"
           d="M 40.028048 56.00175 C 33.832645 56.001501 28.810289 61.023234 28.810128 67.218636 C 28.810289 73.414039 33.832645 78.436288 40.028048 78.436039 C 46.22316 78.435877 51.24529 73.413748 51.245451 67.218636 C 51.24529 61.023525 46.22316 56.001911 40.028048 56.00175 z M 38.744405 59.56794 C 38.80363 59.568264 38.863798 59.580423 38.925273 59.607731 C 39.41707 59.8262 39.131457 60.631536 39.479761 61.041752 C 39.828065 61.451968 40.66892 61.300834 40.804744 61.821549 C 40.940569 62.342265 40.133154 62.621037 40.029598 63.149117 C 39.926042 63.677197 40.568548 64.240652 40.246122 64.671505 C 39.923696 65.102357 39.201687 64.644907 38.724251 64.893197 C 38.246815 65.141486 38.206902 65.994925 37.669019 66.011475 C 37.131135 66.028024 37.03892 65.178845 36.547123 64.960376 C 36.055326 64.741907 35.363221 65.242951 35.014917 64.832735 C 34.666613 64.422519 35.273215 63.820728 35.13739 63.300012 C 35.001565 62.779297 34.178589 62.550134 34.282145 62.022054 C 34.385701 61.493974 35.23406 61.593011 35.556486 61.162158 C 35.878912 60.731305 35.544655 59.945421 36.022091 59.697131 C 36.499527 59.448842 36.951301 60.174118 37.489185 60.157568 C 37.959833 60.143088 38.329829 59.565672 38.744405 59.56794 z " /><path
           id="path60"
           style="fill:#000000;fill-opacity:1;stroke:none;stroke-width:1.50001;stroke-linecap:round;stroke-linejoin:round;stroke-dasharray:none;stroke-opacity:1;paint-order:markers stroke fill"
           d="M 35.208187 42.067716 C 34.099285 42.050195 32.970341 42.301054 31.918465 42.851131 C 28.552553 44.611553 27.251195 48.767366 29.011666 52.133252 C 30.772004 55.499006 34.927426 56.800731 38.29327 55.040568 C 41.659027 53.280227 42.960749 49.124295 41.200586 45.758447 C 39.990448 43.444302 37.647771 42.106264 35.208187 42.067716 z M 36.787419 45.308346 C 36.806693 45.307234 36.826521 45.308335 36.847363 45.311446 C 37.18084 45.361228 37.143153 45.894983 37.422005 46.084526 C 37.700858 46.274068 38.183183 46.042361 38.352181 46.334123 C 38.521179 46.625884 38.080013 46.929139 38.105684 47.265332 C 38.131356 47.601526 38.613413 47.834444 38.490674 48.148482 C 38.367934 48.462521 37.855915 48.306888 37.609074 48.536572 C 37.362233 48.766256 37.480507 49.288362 37.158455 49.3882 C 36.836403 49.488038 36.639271 48.990464 36.305794 48.940682 C 35.972317 48.8909 35.637935 49.309025 35.359082 49.119482 C 35.080229 48.92994 35.345662 48.465565 35.176664 48.173804 C 35.007666 47.882042 34.472665 47.881095 34.446993 47.544902 C 34.421321 47.208708 34.950055 47.126685 35.072795 46.812646 C 35.195534 46.498608 34.862644 46.079599 35.109485 45.849915 C 35.356326 45.620231 35.750165 45.982825 36.072217 45.882987 C 36.374141 45.789389 36.498304 45.325011 36.787419 45.308346 z " /><path
           id="path61"
           style="fill:#000000;fill-opacity:1;stroke:none;stroke-width:1.50001;stroke-linecap:round;stroke-linejoin:round;stroke-dasharray:none;stroke-opacity:1;paint-order:markers stroke fill"
           d="m 32.891034,58.201536 c -2.5023,-4.785146 -8.409968,-6.635723 -13.195075,-4.133355 -4.78498,2.502616 -6.635167,8.410401 -4.132483,13.195346 2.5025,4.784758 8.409888,6.635032 13.194774,4.132784 4.784759,-2.5025 6.63503,-8.409888 4.132784,-13.194775 z"
           sodipodi:nodetypes="ccccc" /><path
           id="path62"
           style="fill:#000000;fill-opacity:1;stroke:none;stroke-width:1.50001;stroke-linecap:round;stroke-linejoin:round;stroke-dasharray:none;stroke-opacity:1;paint-order:markers stroke fill"
           d="M 25.046184,46.730133 A 11.942493,8.2298237 26.877425 0 0 14.472078,41.182155 11.942493,8.2298237 26.877425 0 0 16.349,50.216746 11.942493,8.2298237 26.877425 0 0 26.92355,55.764547 11.942493,8.2298237 26.877425 0 0 25.046184,46.730133 Z" /><path
           id="path63"
           style="fill:#000000;fill-opacity:1;stroke:none;stroke-width:1.50001;stroke-linecap:round;stroke-linejoin:round;stroke-dasharray:none;stroke-opacity:1;paint-order:markers stroke fill"
           d="m 49.290939,53.80415 a 7.4592317,9.8209737 32.063557 0 0 4.919147,-8.495189 7.4592317,9.8209737 32.063557 0 0 -8.134933,1.151311 7.4592317,9.8209737 32.063557 0 0 -4.91898,8.495563 7.4592317,9.8209737 32.063557 0 0 8.134766,-1.151685 z" /></g></g><g
       id="g67"
       transform="translate(79.999995)"><rect
         style="fill:#15572b;fill-opacity:1;stroke-width:1.51181;stroke-linejoin:round;paint-order:markers stroke fill"
         id="rect66"
         width="70"
         height="100"
         x="240"
         y="0" /><path
         id="path82"
         style="baseline-shift:baseline;display:inline;overflow:visible;vector-effect:none;fill:#ffffff;fill-opacity:1;stroke-width:1.72989;stroke-linecap:round;stroke-linejoin:round;paint-order:markers stroke fill;enable-background:accumulate;stop-color:#000000"
         d="m 274.83178,35.365514 a 2.4111734,2.4356649 0 0 0 -1.91987,1.211711 l -6.01264,10.519892 h 16.20137 L 277.088,36.577225 a 2.4111734,2.4356649 0 0 0 -2.25622,-1.211711 z m -8.39416,12.539355 -4.02498,7.042286 h 25.17463 l -4.02498,-7.042286 z m -4.48663,7.849957 -4.02498,7.042286 h 34.14789 l -4.02498,-7.042286 z m -4.48663,7.850038 -4.02515,7.042621 h 43.12157 l -4.02515,-7.042621 z m -4.48679,7.850285 -1.93715,3.389289 a 2.4111734,2.4356649 0 0 0 2.08808,3.652917 h 43.743 a 2.4111734,2.4356649 0 0 0 2.08808,-3.652917 l -1.93715,-3.389289 z" /><text
         xml:space="preserve"
         style="font-size:19.7556px;line-height:1.1;font-family:'Linux Libertine O';-inkscape-font-specification:'Linux Libertine O';font-variant-numeric:tabular-nums;text-align:center;text-decoration-color:#000000;letter-spacing:0px;word-spacing:0px;writing-mode:lr-tb;direction:ltr;text-anchor:middle;fill:#ffffff;fill-opacity:1;stroke:#ffffff;stroke-width:1.5;stroke-linecap:round;stroke-linejoin:round;stroke-dasharray:none;stroke-opacity:1;paint-order:markers stroke fill"
         x="174.30446"
         y="-223.8528"
         id="text66"
         transform="rotate(60)"><tspan
           sodipodi:role="line"
           id="tspan66"
           style="font-size:19.7556px;letter-spacing:0px;stroke:none;stroke-width:1.5"
           x="174.30446"
           y="-223.8528">Needs</tspan></text></g></g></svg>
