<?xml version="1.0" encoding="UTF-8" standalone="no"?>
<!-- Created with Inkscape (http://www.inkscape.org/) -->

<svg
   version="1.1"
   id="svg1"
   width="325mm"
   height="235mm"
   viewBox="0 0 325.00001 235"
   sodipodi:docname="player board.svg"
   inkscape:version="1.4.1 (1:1.4.1+202503302257+93de688d07)"
   xml:space="preserve"
   inkscape:export-filename="player board.png"
   inkscape:export-xdpi="96"
   inkscape:export-ydpi="96"
   xmlns:inkscape="http://www.inkscape.org/namespaces/inkscape"
   xmlns:sodipodi="http://sodipodi.sourceforge.net/DTD/sodipodi-0.dtd"
   xmlns:xlink="http://www.w3.org/1999/xlink"
   xmlns="http://www.w3.org/2000/svg"
   xmlns:svg="http://www.w3.org/2000/svg"><defs
     id="defs1"><linearGradient
       id="swatch17"
       inkscape:swatch="solid"
       gradientTransform="matrix(0.26458333,0,0,0.26458333,-1.5231424,55.067455)"><stop
         style="stop-color:#ffffff;stop-opacity:0;"
         offset="0"
         id="stop17" /></linearGradient></defs><sodipodi:namedview
     id="namedview1"
     pagecolor="#ffffff"
     bordercolor="#000000"
     borderopacity="0.25"
     inkscape:showpageshadow="2"
     inkscape:pageopacity="0.0"
     inkscape:pagecheckerboard="0"
     inkscape:deskcolor="#d1d1d1"
     inkscape:zoom="0.79839965"
     inkscape:cx="699.52435"
     inkscape:cy="560.49623"
     inkscape:window-width="1920"
     inkscape:window-height="1131"
     inkscape:window-x="0"
     inkscape:window-y="0"
     inkscape:window-maximized="1"
     inkscape:current-layer="g1"
     inkscape:document-units="mm"
     showgrid="false"
     inkscape:export-bgcolor="#ffffffff"><inkscape:page
       x="0"
       y="0"
       width="325.00003"
       height="235"
       id="page23"
       margin="0"
       bleed="0" /></sodipodi:namedview><g
     inkscape:groupmode="layer"
     inkscape:label="Image"
     id="g1"
     transform="translate(90)"><g
       id="g17"
       transform="translate(-69.849989,10)"><rect
         style="fill:none;fill-opacity:1;stroke:#15034d;stroke-width:2;stroke-linejoin:round;stroke-dasharray:none;stroke-opacity:1;paint-order:markers stroke fill"
         id="rect4"
         width="60"
         height="90"
         x="74.999992"
         y="5"
         rx="5"
         ry="5" /><path
         d="m 113.01177,46.464782 c -2.36378,-0.23007 -4.47654,1.192355 -4.95766,3.535218 0,0.711239 2.82398,1.652557 5.41787,1.652557 2.59389,0 4.93675,-1.652557 4.93675,-2.11276 0,-0.481091 -1.63164,-2.823994 -5.39696,-3.075015 m -16.002599,0 c -3.76532,0.251021 -5.41787,2.363782 -5.41787,3.054094 0,0.481092 2.57296,2.133681 4.93674,2.133681 2.36379,0 5.417879,-0.941333 5.417879,-1.652557 -0.48109,-2.342862 -2.823989,-3.765319 -4.936749,-3.535218 m 18.345459,12.948514 c -3.99542,0 -6.5893,-4.706653 -10.35462,-4.706653 -3.76532,0 -6.589309,4.706653 -10.354629,4.706653 -4.936744,0 -8.471961,-4.476543 -8.471961,-12.467391 0,-4.936746 1.422457,-6.359202 7.760741,-6.359202 6.338289,0 8.011759,2.593883 11.065849,2.593883 3.0541,0 4.93676,-2.593883 11.06586,-2.593883 6.12911,0 7.76071,1.652557 7.76071,6.359202 0,7.990848 -3.53519,12.467391 -8.47195,12.467391 z"
         id="path1"
         style="fill:#15034d;fill-opacity:1;stroke-width:0.264583" /><circle
         style="fill:none;fill-opacity:1;stroke:url(#swatch17);stroke-width:0.3;stroke-linejoin:round;stroke-opacity:1;paint-order:markers stroke fill"
         id="path4"
         cx="50"
         cy="-105"
         r="27.768059"
         transform="rotate(90)" /><text
         xml:space="preserve"
         style="font-weight:bold;font-size:16.9333px;line-height:1;font-family:'Minion Pro';-inkscape-font-specification:'Minion Pro Bold';font-variant-numeric:tabular-nums;text-align:center;text-decoration-color:#000000;letter-spacing:-1.05833px;word-spacing:0px;writing-mode:lr-tb;direction:ltr;text-anchor:middle;fill:#15034d;fill-opacity:1;stroke-width:1.51181;stroke-linejoin:round;paint-order:markers stroke fill"
         id="text52-8"><textPath
           xlink:href="#path4"
           startOffset="50%"
           id="textPath15"
           style="font-style:normal;font-variant:normal;font-weight:normal;font-stretch:normal;font-size:16.9333px;line-height:1;font-family:'Linux Libertine O';-inkscape-font-specification:'Linux Libertine O';text-align:center;letter-spacing:-1.05833px;text-anchor:middle;fill:#15034d;fill-opacity:1">Secret</textPath></text><path
         id="circle15"
         style="fill:none;stroke:url(#swatch17);stroke-width:0.3;stroke-linejoin:round;paint-order:markers stroke fill"
         d="m 104.99999,14.999995 a 35.000002,35.000002 0 0 0 -34.999996,35.000004 35.000002,35.000002 0 0 0 34.999996,35 35.000002,35.000002 0 0 0 35,-35 35.000002,35.000002 0 0 0 -35,-35.000004 z" /><text
         xml:space="preserve"
         style="font-size:16.9333px;line-height:1.1;font-family:'Linux Libertine O';-inkscape-font-specification:'Linux Libertine O';font-variant-numeric:tabular-nums;text-align:center;text-decoration-color:#000000;letter-spacing:1.05833px;word-spacing:0px;writing-mode:lr-tb;direction:ltr;text-anchor:middle;fill:#15034d;fill-opacity:1;stroke:#ffffff;stroke-width:0.3;stroke-linejoin:round;stroke-opacity:1;paint-order:markers stroke fill"
         id="text17"><textPath
           xlink:href="#circle15"
           startOffset="50%"
           id="textPath17"><tspan
             id="tspan17"
             style="letter-spacing:1.05833px;fill:#15034d;fill-opacity:1;stroke:none;stroke-width:0.3">Action</tspan></textPath></text></g><g
       id="g53"
       transform="translate(-320,10)"><rect
         style="fill:none;fill-opacity:1;stroke:#ed350d;stroke-width:2;stroke-linejoin:round;stroke-dasharray:none;stroke-opacity:1;paint-order:markers stroke fill"
         id="rect21"
         width="60"
         height="90"
         x="245"
         y="5"
         rx="5"
         ry="5" /><path
         id="path28"
         style="baseline-shift:baseline;display:inline;overflow:visible;vector-effect:none;fill:#ed350d;fill-opacity:1;stroke-width:1;stroke-linejoin:round;paint-order:markers stroke fill;enable-background:accumulate;stop-color:#000000"
         d="m 275.0254,19.67545 a 0.61368468,0.61368468 0 0 0 -0.61396,0.61355 v 6.92273 l -19.47561,5.21785 a 2.0458161,2.0458161 0 0 0 -0.58691,3.69225 l -5.05505,18.0925 a 1.0229101,1.0229101 0 0 0 -0.37253,1.6588 c 3.5845,3.78013 9.50412,3.78014 13.08861,0 a 1.0229101,1.0229101 0 0 0 -0.37041,-1.65796 l -4.96415,-17.7631 h 36.70002 l -4.96414,17.76226 a 1.0229101,1.0229101 0 0 0 -0.37253,1.6588 c 3.58449,3.78013 9.50624,3.78014 13.09072,0 a 1.0229101,1.0229101 0 0 0 -0.37295,-1.6588 l -5.05632,-18.0925 a 2.0458161,2.0458161 0 0 0 -0.58691,-3.69225 L 275.63895,27.21173 V 20.289 a 0.61368468,0.61368468 0 0 0 -0.61355,-0.61355 z m 19.55849,17.00918 4.87873,17.46078 h -9.75704 z m -39.11824,0.003 4.87915,17.45782 h -9.75831 z" /><text
         xml:space="preserve"
         style="font-size:9.87778px;line-height:1.1;font-family:'Linux Libertine O';-inkscape-font-specification:'Linux Libertine O';font-variant-numeric:tabular-nums;text-align:center;text-decoration-color:#000000;letter-spacing:0px;word-spacing:0px;writing-mode:lr-tb;direction:ltr;text-anchor:middle;fill:#ed350d;fill-opacity:1;stroke:#ffffff;stroke-width:1.5;stroke-linecap:round;stroke-linejoin:round;stroke-dasharray:none;stroke-opacity:1;paint-order:markers stroke fill"
         x="275.02539"
         y="72.751091"
         id="text52"><tspan
           sodipodi:role="line"
           id="tspan52"
           style="font-size:9.87778px;letter-spacing:0px;fill:#ed350d;fill-opacity:1;stroke:none;stroke-width:1.5"
           x="275.02539"
           y="72.751091">Accrued</tspan><tspan
           sodipodi:role="line"
           style="font-size:9.87778px;letter-spacing:0px;fill:#ed350d;fill-opacity:1;stroke:none;stroke-width:1.5"
           x="275.02539"
           y="83.616646"
           id="tspan88">Punishments</tspan></text></g><g
       id="g83"
       transform="translate(160.15001,10)"><rect
         style="fill:none;stroke:#f9e232;stroke-width:2;stroke-linejoin:round;stroke-dasharray:none;stroke-opacity:1;paint-order:markers stroke fill"
         id="rect1"
         width="60"
         height="90"
         x="-4.9999999e-06"
         y="5"
         rx="5"
         ry="5" /><text
         xml:space="preserve"
         style="font-size:12.7px;line-height:1;font-family:'Linux Libertine O';-inkscape-font-specification:'Linux Libertine O';font-variant-numeric:tabular-nums;text-align:center;text-decoration-color:#000000;letter-spacing:0px;word-spacing:0px;writing-mode:lr-tb;direction:ltr;text-anchor:middle;fill:#000000;fill-opacity:1;stroke:none;stroke-width:1.5;stroke-linecap:round;stroke-linejoin:round;stroke-dasharray:none;stroke-opacity:1;paint-order:markers stroke fill"
         x="30.069847"
         y="26.335918"
         id="text63"><tspan
           sodipodi:role="line"
           style="line-height:1;stroke-width:1.5"
           x="30.069847"
           y="26.335918"
           id="tspan64">Action</tspan><tspan
           sodipodi:role="line"
           style="line-height:1;stroke-width:1.5"
           x="30.069847"
           y="39.035919"
           id="tspan65">Option</tspan></text><path
         id="path59"
         style="fill:#000000;fill-opacity:1;stroke:none;stroke-width:1.50001;stroke-linecap:round;stroke-linejoin:round;stroke-dasharray:none;stroke-opacity:1;paint-order:markers stroke fill"
         d="m 35.028048,56.00175 c -6.195403,-2.49e-4 -11.217759,5.021484 -11.21792,11.216886 1.61e-4,6.195403 5.022517,11.217652 11.21792,11.217403 C 41.22316,78.435877 46.24529,73.413748 46.245451,67.218636 46.24529,61.023525 41.22316,56.001911 35.028048,56.00175 Z m -1.283643,3.56619 c 0.05922,3.24e-4 0.119393,0.01248 0.180868,0.03979 0.491797,0.218469 0.206184,1.023805 0.554488,1.434021 0.348304,0.410216 1.189159,0.259082 1.324983,0.779797 0.135825,0.520716 -0.67159,0.799488 -0.775146,1.327568 -0.103556,0.52808 0.53895,1.091535 0.216524,1.522388 -0.322426,0.430852 -1.044435,-0.0266 -1.521871,0.221692 -0.477436,0.248289 -0.517349,1.101728 -1.055232,1.118278 -0.537884,0.01655 -0.630099,-0.83263 -1.121896,-1.051099 -0.491797,-0.218469 -1.183902,0.282575 -1.532206,-0.127641 -0.348304,-0.410216 0.258298,-1.012007 0.122473,-1.532723 -0.135825,-0.520715 -0.958801,-0.749878 -0.855245,-1.277958 0.103556,-0.52808 0.951915,-0.429043 1.274341,-0.859896 0.322426,-0.430853 -0.01183,-1.216737 0.465605,-1.465027 0.477436,-0.248289 0.92921,0.476987 1.467094,0.460437 0.470648,-0.01448 0.840644,-0.591896 1.25522,-0.589627 z" /><path
         id="path60"
         style="fill:#000000;fill-opacity:1;stroke:none;stroke-width:1.50001;stroke-linecap:round;stroke-linejoin:round;stroke-dasharray:none;stroke-opacity:1;paint-order:markers stroke fill"
         d="m 30.208187,42.067716 c -1.108902,-0.01752 -2.237846,0.233338 -3.289722,0.783415 -3.365912,1.760422 -4.66727,5.916235 -2.906799,9.282121 1.760338,3.365754 5.91576,4.667479 9.281604,2.907316 3.365757,-1.760341 4.667479,-5.916273 2.907316,-9.282121 -1.210138,-2.314145 -3.552815,-3.652183 -5.992399,-3.690731 z m 1.579232,3.24063 c 0.01927,-0.0011 0.0391,-1.1e-5 0.05994,0.0031 0.333477,0.04978 0.29579,0.583537 0.574642,0.77308 0.278853,0.189542 0.761178,-0.04216 0.930176,0.249597 0.168998,0.291761 -0.272168,0.595016 -0.246497,0.931209 0.02567,0.336194 0.507729,0.569112 0.38499,0.88315 -0.12274,0.314039 -0.634759,0.158406 -0.8816,0.38809 -0.246841,0.229684 -0.128567,0.75179 -0.450619,0.851628 -0.322052,0.09984 -0.519184,-0.397736 -0.852661,-0.447518 -0.333477,-0.04978 -0.667859,0.368343 -0.946712,0.1788 -0.278853,-0.189542 -0.01342,-0.653917 -0.182418,-0.945678 -0.168998,-0.291762 -0.703999,-0.292709 -0.729671,-0.628902 -0.02567,-0.336194 0.503062,-0.418217 0.625802,-0.732256 0.122739,-0.314038 -0.210151,-0.733047 0.03669,-0.962731 0.246841,-0.229684 0.64068,0.13291 0.962732,0.03307 0.301924,-0.0936 0.426087,-0.557976 0.715202,-0.574641 z" /><path
         id="path61"
         style="fill:#000000;fill-opacity:1;stroke:none;stroke-width:1.50001;stroke-linecap:round;stroke-linejoin:round;stroke-dasharray:none;stroke-opacity:1;paint-order:markers stroke fill"
         d="m 27.891034,58.201536 c -2.5023,-4.785146 -8.409968,-6.635723 -13.195075,-4.133355 -4.7849802,2.502616 -6.6351672,8.410401 -4.132483,13.195346 2.5025,4.784758 8.409888,6.635032 13.194774,4.132784 4.784759,-2.5025 6.63503,-8.409888 4.132784,-13.194775 z"
         sodipodi:nodetypes="ccccc" /><path
         id="path62"
         style="fill:#000000;fill-opacity:1;stroke:none;stroke-width:1.50001;stroke-linecap:round;stroke-linejoin:round;stroke-dasharray:none;stroke-opacity:1;paint-order:markers stroke fill"
         d="M 20.046184,46.730133 A 11.942493,8.2298237 26.877425 0 0 9.4720778,41.182155 11.942493,8.2298237 26.877425 0 0 11.349,50.216746 11.942493,8.2298237 26.877425 0 0 21.92355,55.764547 11.942493,8.2298237 26.877425 0 0 20.046184,46.730133 Z" /><path
         id="path63"
         style="fill:#000000;fill-opacity:1;stroke:none;stroke-width:1.50001;stroke-linecap:round;stroke-linejoin:round;stroke-dasharray:none;stroke-opacity:1;paint-order:markers stroke fill"
         d="m 44.290939,53.80415 a 7.4592317,9.8209737 32.063557 0 0 4.919147,-8.495189 7.4592317,9.8209737 32.063557 0 0 -8.134933,1.151311 7.4592317,9.8209737 32.063557 0 0 -4.91898,8.495563 7.4592317,9.8209737 32.063557 0 0 8.134766,-1.151685 z" /></g><g
       id="g67"
       transform="translate(-239.99998,125)"><rect
         style="fill:none;fill-opacity:1;stroke:#15572b;stroke-width:2;stroke-linejoin:round;stroke-dasharray:none;stroke-opacity:1;paint-order:markers stroke fill"
         id="rect66"
         width="60"
         height="90"
         x="244.99998"
         y="5"
         rx="5"
         ry="5" /><path
         id="path82"
         style="baseline-shift:baseline;display:inline;overflow:visible;vector-effect:none;fill:#15572b;fill-opacity:1;stroke-width:1.72989;stroke-linecap:round;stroke-linejoin:round;paint-order:markers stroke fill;enable-background:accumulate;stop-color:#000000"
         d="m 274.83178,35.365514 a 2.4111734,2.4356649 0 0 0 -1.91987,1.211711 l -6.01264,10.519892 h 16.20137 L 277.088,36.577225 a 2.4111734,2.4356649 0 0 0 -2.25622,-1.211711 z m -8.39416,12.539355 -4.02498,7.042286 h 25.17463 l -4.02498,-7.042286 z m -4.48663,7.849957 -4.02498,7.042286 h 34.14789 l -4.02498,-7.042286 z m -4.48663,7.850038 -4.02515,7.042621 h 43.12157 l -4.02515,-7.042621 z m -4.48679,7.850285 -1.93715,3.389289 a 2.4111734,2.4356649 0 0 0 2.08808,3.652917 h 43.743 a 2.4111734,2.4356649 0 0 0 2.08808,-3.652917 l -1.93715,-3.389289 z" /><text
         xml:space="preserve"
         style="font-size:19.7556px;line-height:1.1;font-family:'Linux Libertine O';-inkscape-font-specification:'Linux Libertine O';font-variant-numeric:tabular-nums;text-align:center;text-decoration-color:#000000;letter-spacing:0px;word-spacing:0px;writing-mode:lr-tb;direction:ltr;text-anchor:middle;fill:#15572b;fill-opacity:1;stroke:#ffffff;stroke-width:1.5;stroke-linecap:round;stroke-linejoin:round;stroke-dasharray:none;stroke-opacity:1;paint-order:markers stroke fill"
         x="174.30446"
         y="-223.8528"
         id="text66"
         transform="rotate(60)"><tspan
           sodipodi:role="line"
           id="tspan66"
           style="font-size:19.7556px;letter-spacing:0px;fill:#15572b;fill-opacity:1;stroke:none;stroke-width:1.5"
           x="174.30446"
           y="-223.8528">Needs</tspan></text></g><g
       id="g88"
       transform="translate(80.150011,10)"><rect
         style="fill:none;stroke:#f9e232;stroke-width:2;stroke-linejoin:round;stroke-dasharray:none;stroke-opacity:1;paint-order:markers stroke fill"
         id="rect83"
         width="60"
         height="90"
         x="4.9999938"
         y="5"
         rx="5"
         ry="5" /><text
         xml:space="preserve"
         style="font-size:12.7px;line-height:1;font-family:'Linux Libertine O';-inkscape-font-specification:'Linux Libertine O';font-variant-numeric:tabular-nums;text-align:center;text-decoration-color:#000000;letter-spacing:0px;word-spacing:0px;writing-mode:lr-tb;direction:ltr;text-anchor:middle;fill:#000000;fill-opacity:1;stroke:none;stroke-width:1.5;stroke-linecap:round;stroke-linejoin:round;stroke-dasharray:none;stroke-opacity:1;paint-order:markers stroke fill"
         x="35.069847"
         y="26.335918"
         id="text84"><tspan
           sodipodi:role="line"
           style="line-height:1;fill:#000000;fill-opacity:1;stroke-width:1.5"
           x="35.069847"
           y="26.335918"
           id="tspan89">Action</tspan><tspan
           sodipodi:role="line"
           style="line-height:1;fill:#000000;fill-opacity:1;stroke-width:1.5"
           x="35.069847"
           y="39.035919"
           id="tspan90">Option</tspan></text><path
         id="path84"
         style="fill:#000000;fill-opacity:1;stroke:none;stroke-width:1.50001;stroke-linecap:round;stroke-linejoin:round;stroke-dasharray:none;stroke-opacity:1;paint-order:markers stroke fill"
         d="m 40.028048,56.00175 c -6.195403,-2.49e-4 -11.217759,5.021484 -11.21792,11.216886 1.61e-4,6.195403 5.022517,11.217652 11.21792,11.217403 C 46.22316,78.435877 51.24529,73.413748 51.245451,67.218636 51.24529,61.023525 46.22316,56.001911 40.028048,56.00175 Z m -1.283643,3.56619 c 0.05922,3.24e-4 0.119393,0.01248 0.180868,0.03979 0.491797,0.218469 0.206184,1.023805 0.554488,1.434021 0.348304,0.410216 1.189159,0.259082 1.324983,0.779797 0.135825,0.520716 -0.67159,0.799488 -0.775146,1.327568 -0.103556,0.52808 0.53895,1.091535 0.216524,1.522388 -0.322426,0.430852 -1.044435,-0.0266 -1.521871,0.221692 -0.477436,0.248289 -0.517349,1.101728 -1.055232,1.118278 -0.537884,0.01655 -0.630099,-0.83263 -1.121896,-1.051099 -0.491797,-0.218469 -1.183902,0.282575 -1.532206,-0.127641 -0.348304,-0.410216 0.258298,-1.012007 0.122473,-1.532723 -0.135825,-0.520715 -0.958801,-0.749878 -0.855245,-1.277958 0.103556,-0.52808 0.951915,-0.429043 1.274341,-0.859896 0.322426,-0.430853 -0.01183,-1.216737 0.465605,-1.465027 0.477436,-0.248289 0.92921,0.476987 1.467094,0.460437 0.470648,-0.01448 0.840644,-0.591896 1.25522,-0.589627 z" /><path
         id="path85"
         style="fill:#000000;fill-opacity:1;stroke:none;stroke-width:1.50001;stroke-linecap:round;stroke-linejoin:round;stroke-dasharray:none;stroke-opacity:1;paint-order:markers stroke fill"
         d="m 35.208187,42.067716 c -1.108902,-0.01752 -2.237846,0.233338 -3.289722,0.783415 -3.365912,1.760422 -4.66727,5.916235 -2.906799,9.282121 1.760338,3.365754 5.91576,4.667479 9.281604,2.907316 3.365757,-1.760341 4.667479,-5.916273 2.907316,-9.282121 -1.210138,-2.314145 -3.552815,-3.652183 -5.992399,-3.690731 z m 1.579232,3.24063 c 0.01927,-0.0011 0.0391,-1.1e-5 0.05994,0.0031 0.333477,0.04978 0.29579,0.583537 0.574642,0.77308 0.278853,0.189542 0.761178,-0.04216 0.930176,0.249597 0.168998,0.291761 -0.272168,0.595016 -0.246497,0.931209 0.02567,0.336194 0.507729,0.569112 0.38499,0.88315 -0.12274,0.314039 -0.634759,0.158406 -0.8816,0.38809 -0.246841,0.229684 -0.128567,0.75179 -0.450619,0.851628 -0.322052,0.09984 -0.519184,-0.397736 -0.852661,-0.447518 -0.333477,-0.04978 -0.667859,0.368343 -0.946712,0.1788 -0.278853,-0.189542 -0.01342,-0.653917 -0.182418,-0.945678 -0.168998,-0.291762 -0.703999,-0.292709 -0.729671,-0.628902 -0.02567,-0.336194 0.503062,-0.418217 0.625802,-0.732256 0.122739,-0.314038 -0.210151,-0.733047 0.03669,-0.962731 0.246841,-0.229684 0.64068,0.13291 0.962732,0.03307 0.301924,-0.0936 0.426087,-0.557976 0.715202,-0.574641 z" /><path
         id="path86"
         style="fill:#000000;fill-opacity:1;stroke:none;stroke-width:1.50001;stroke-linecap:round;stroke-linejoin:round;stroke-dasharray:none;stroke-opacity:1;paint-order:markers stroke fill"
         d="m 32.891034,58.201536 c -2.5023,-4.785146 -8.409968,-6.635723 -13.195075,-4.133355 -4.78498,2.502616 -6.635167,8.410401 -4.132483,13.195346 2.5025,4.784758 8.409888,6.635032 13.194774,4.132784 4.784759,-2.5025 6.63503,-8.409888 4.132784,-13.194775 z"
         sodipodi:nodetypes="ccccc" /><path
         id="path87"
         style="fill:#000000;fill-opacity:1;stroke:none;stroke-width:1.50001;stroke-linecap:round;stroke-linejoin:round;stroke-dasharray:none;stroke-opacity:1;paint-order:markers stroke fill"
         d="M 25.046184,46.730133 A 11.942493,8.2298237 26.877425 0 0 14.472078,41.182155 11.942493,8.2298237 26.877425 0 0 16.349,50.216746 11.942493,8.2298237 26.877425 0 0 26.92355,55.764547 11.942493,8.2298237 26.877425 0 0 25.046184,46.730133 Z" /><path
         id="path88"
         style="fill:#000000;fill-opacity:1;stroke:none;stroke-width:1.50001;stroke-linecap:round;stroke-linejoin:round;stroke-dasharray:none;stroke-opacity:1;paint-order:markers stroke fill"
         d="m 49.290939,53.80415 a 7.4592317,9.8209737 32.063557 0 0 4.919147,-8.495189 7.4592317,9.8209737 32.063557 0 0 -8.134933,1.151311 7.4592317,9.8209737 32.063557 0 0 -4.91898,8.495563 7.4592317,9.8209737 32.063557 0 0 8.134766,-1.151685 z" /></g><g
       id="g96"
       transform="translate(-85,115)"><rect
         style="fill:none;stroke:#000000;stroke-width:2;stroke-linejoin:round;stroke-dasharray:none;stroke-opacity:1;paint-order:markers stroke fill"
         id="rect90"
         width="60"
         height="90"
         x="10"
         y="15"
         rx="30"
         ry="30" /><g
         style="fill:#000000;stroke-width:4.7909"
         id="g97"
         transform="matrix(0,0.0898569,0.0898569,0,17.909546,37.909466)"><g
           id="g5"
           style="stroke-width:4.7909">
	<path
   d="M 468.329,189.388 C 425.714,96.78 259.246,28.905 160.927,55.861 c -4.605,1.268 -8.709,2.877 -12.813,4.483 1.648,-0.071 3.292,-0.354 4.942,-0.354 68.217,0 128.591,61.844 140.438,143.874 6.212,42.957 -1.581,85.382 -21.956,119.467 -20.704,34.631 -51.85,56.548 -87.716,61.719 -5.309,0.778 -10.712,1.167 -16.064,1.167 -3.233,0 -6.417,-0.271 -9.617,-0.539 6.182,8.175 12.597,15.365 19.249,21.606 43.963,41.215 110.498,46.007 160.002,11.662 35.221,-24.422 81.906,-50.276 126.438,-54.847 7.13,-0.735 13.324,-5.313 16.098,-11.922 19.403,-46.113 14.271,-106.537 -11.599,-162.789 z"
   id="path1-4"
   style="stroke-width:4.7909" />
	<path
   d="m 181.507,369.004 c 30.941,-4.468 57.97,-23.645 76.107,-53.991 18.455,-30.899 25.506,-69.545 19.819,-108.826 C 266.74,132.086 213.255,76.211 153.057,76.211 c -4.547,0 -9.143,0.325 -13.735,0.982 -12.5,1.806 -24.301,6.123 -35.185,12.489 52.88,-2.234 100.52,45.119 109.624,108.305 4.676,32.326 -1.203,64.281 -16.553,89.959 -15.684,26.228 -39.321,42.839 -66.568,46.761 -4.072,0.586 -8.158,0.878 -12.197,0.878 -12.5,0 -24.651,-2.787 -36.01,-7.825 26.061,29.971 61.798,46.646 99.074,41.244 z"
   id="path2"
   style="stroke-width:4.7909" />
	<path
   d="m 128.327,318.65 c 22.32,-3.215 41.84,-17.079 54.956,-39.028 13.452,-22.495 18.567,-50.661 14.419,-79.312 -7.78,-53.904 -46.529,-94.545 -90.142,-94.545 -3.281,0 -6.577,0.229 -9.889,0.703 -12.813,1.855 -24.381,7.297 -34.36,15.287 32.158,2.83 59.628,32.533 65.222,71.368 6.432,44.527 -18.283,85.082 -55.066,90.395 -2.708,0.396 -5.422,0.589 -8.111,0.589 -4.675,0 -9.253,-0.689 -13.734,-1.792 19.182,25.722 47.366,40.588 76.705,36.335 z"
   id="path3"
   style="stroke-width:4.7909" />
	<path
   d="m 71.721,271.479 c 30.149,-4.357 50.237,-38.725 44.772,-76.61 -5.039,-34.917 -30.084,-61.248 -58.253,-61.248 -2.107,0 -4.229,0.153 -6.366,0.46 -1.857,0.271 -3.584,0.967 -5.372,1.459 12.215,7.676 21.704,22.71 24.335,40.965 4.135,28.58 -10.047,54.372 -31.591,57.491 -1.476,0.207 -2.931,0.318 -4.388,0.318 -9.127,0 -17.746,-4.222 -24.903,-11.112 9.236,30.924 34.517,52.127 61.766,48.277 z"
   id="path4-0"
   style="stroke-width:4.7909" />
	<path
   d="m 38.075,225.968 c 17.14,-2.48 28.229,-24.155 24.744,-48.306 -3.263,-22.549 -17.979,-39.556 -34.218,-39.556 -1.06,0 -2.123,0.071 -3.202,0.229 -17.138,2.487 -28.243,24.162 -24.76,48.32 3.441,23.676 20.404,41.828 37.436,39.313 z"
   id="path5"
   style="stroke-width:4.7909" />
</g></g></g><g
       id="g109"
       transform="translate(-7.5000049)"><text
         xml:space="preserve"
         style="font-size:16.9333px;line-height:1;font-family:'Linux Libertine O';-inkscape-font-specification:'Linux Libertine O';font-variant-numeric:tabular-nums;text-align:center;text-decoration-color:#000000;letter-spacing:0px;word-spacing:0px;writing-mode:lr-tb;direction:ltr;text-anchor:middle;fill:none;fill-opacity:1;stroke:#f9e232;stroke-width:2;stroke-linecap:round;stroke-linejoin:round;stroke-dasharray:none;stroke-opacity:1;paint-order:markers stroke fill"
         x="159.99153"
         y="180.79967"
         id="text98"><tspan
           sodipodi:role="line"
           id="tspan98"
           style="font-size:16.9333px;fill:#000000;fill-opacity:1;stroke:none;stroke-width:2"
           x="159.99153"
           y="180.79967">Resource Stash</tspan></text></g><g
       id="g108"
       transform="translate(-159.99998,125)"><rect
         style="fill:none;fill-opacity:1;stroke:#000000;stroke-width:2;stroke-linejoin:round;stroke-dasharray:none;stroke-opacity:1;paint-order:markers stroke fill"
         id="rect98"
         width="135"
         height="90"
         x="244.99998"
         y="5"
         rx="5"
         ry="5" /></g></g></svg>
