# File generated by ImageToStl.com - Free Image and 3D model conversion tools

o obj1
v 20.02357101 28.13371277 1
v 20.34425545 31.1028614 1
v 20.02357101 28.13371277 30
v 20.34425545 31.1028614 30
v 19.47071266 25.19891357 0
v 19.84000015 27.00963783 0
v 19.84000015 27.00963783 1
v 19.47071266 25.19891357 30
v 18.68909454 22.31659508 30
v 18.68909454 22.31659508 0
v 17.68354416 19.50455856 30
v 17.68354416 19.50455856 0
v 16.46026993 16.78017044 30
v 16.46026993 16.78017044 0
v 15.02683067 14.16025829 30
v 15.02683067 14.16025829 0
v 13.3920784 11.66100407 30
v 13.3920784 11.66100407 0
v 11.56611061 9.29784393 30
v 11.56611061 9.29784393 0
v 9.56020451 7.08537292 30
v 9.56020451 7.08537292 0
v 7.38674879 5.03725719 30
v 7.38674879 5.03725719 0
v 5.05916834 3.1661458 30
v 5.05916834 3.1661458 0
v 2.59183908 1.48359621 30
v 2.59183908 1.48359621 0
v -0 0 30
v -0 0 0
v 20.84000015 27.37514496 1
v 20.84000015 27.37514496 0
v 21.30395889 25.2077713 0
v 20.70810699 28.13643265 1
v 21.30395889 25.2077713 30
v 20.70810699 28.13643265 30
v 22.12812614 22.33499527 0
v 22.12812614 22.33499527 30
v 23.17551231 19.53587341 0
v 23.17551231 19.53587341 30
v 24.43963242 16.82772064 0
v 24.43963242 16.82772064 30
v 25.91267586 14.22729015 0
v 25.91267586 14.22729015 30
v 27.58552551 11.75066471 0
v 27.58552551 11.75066471 30
v 29.44783401 9.41316509 0
v 29.44783401 9.41316509 30
v 31.48807907 7.22925138 0
v 31.48807907 7.22925138 30
v 33.69364929 5.21243095 0
v 33.69364929 5.21243095 30
v 36.05089188 3.37517929 0
v 36.05089188 3.37517929 30
v 38.54523087 1.72886181 0
v 38.54523087 1.72886181 30
v 41.16123962 0.28366163 0
v 41.16123962 0.28366163 30
v 19.84000015 0 0
v 20.84000015 0 0
v 0 0 0
v 20.34425545 34.43996429 0
v 41.16123962 0.28366163 31
v 0 0 30
v 0 0 31
v 41.16123962 0.28366163 -0
v 20.34425545 34.43996429 -0
v 20.34425545 34.43996429 31
v -0 -0 0
v 19.84000015 27.00963783 -0
v 19.84000015 0 1
v 20.84000015 0 1
vn 0.99422 -0.10738 0
vn 0.97983 -0.19983 0
vn 0.98693 -0.16117 0
vn 0.98271 -0.18512 0.00096
vn 0.96514 -0.26172 0
vn 0.94161 -0.33671 0
vn 0.91226 -0.40961 0
vn 0.87728 -0.47999 0
vn 0.83687 -0.5474 0
vn 0.7913 -0.61142 0
vn 0.74084 -0.67168 0
vn 0.68581 -0.72778 0
vn 0.62654 -0.77939 0
vn 0.5634 -0.82618 0
vn 0.49678 -0.86788 0
vn -0.97785 -0.20932 -0
vn -0.98532 -0.17071 0.00301
vn -0.97992 -0.19937 0
vn -0.99256 -0.12174 0
vn -0.96123 -0.27576 -0
vn -0.93658 -0.35045 -0
vn -0.90614 -0.42297 -0
vn -0.8701 -0.49288 -0
vn -0.82867 -0.55973 -0
vn -0.78212 -0.62312 -0
vn -0.73073 -0.68266 -0
vn -0.67482 -0.73798 -0
vn -0.61474 -0.78873 -0
vn -0.55085 -0.8346 -0
vn -0.48356 -0.87531 -0
vn 0 0 -1
vn 0.00689 -0.99998 0
vn 0.85391 0.52042 -0
vn -0.861 0.50861 0
vn -0.861 0.50861 0
vn 0 0 1
vn -1 0 0
vn 1 0 0
vn 0 -1 0
f 1//1 2//1 3//1
f 3//1 2//1 4//1
f 5//2 6//2 7//2
f 1//3 3//3 7//3
f 7//4 3//4 8//4
f 7//2 8//2 5//2
f 5//5 8//5 9//5
f 5//5 9//5 10//5
f 10//6 9//6 11//6
f 10//6 11//6 12//6
f 12//7 11//7 13//7
f 12//7 13//7 14//7
f 14//8 13//8 15//8
f 14//8 15//8 16//8
f 16//9 15//9 17//9
f 16//9 17//9 18//9
f 18//10 17//10 19//10
f 18//10 19//10 20//10
f 20//11 19//11 21//11
f 20//11 21//11 22//11
f 22//12 21//12 23//12
f 22//12 23//12 24//12
f 24//13 23//13 25//13
f 24//13 25//13 26//13
f 26//14 25//14 27//14
f 26//14 27//14 28//14
f 28//15 27//15 29//15
f 28//15 29//15 30//15
f 31//16 32//16 33//16
f 34//17 31//17 35//17
f 35//18 36//18 34//18
f 34//19 36//19 4//19
f 34//19 4//19 2//19
f 31//16 33//16 35//16
f 35//20 33//20 37//20
f 35//20 37//20 38//20
f 38//21 37//21 39//21
f 38//21 39//21 40//21
f 40//22 39//22 41//22
f 40//22 41//22 42//22
f 42//23 41//23 43//23
f 42//23 43//23 44//23
f 44//24 43//24 45//24
f 44//24 45//24 46//24
f 46//25 45//25 47//25
f 46//25 47//25 48//25
f 48//26 47//26 49//26
f 48//26 49//26 50//26
f 50//27 49//27 51//27
f 50//27 51//27 52//27
f 52//28 51//28 53//28
f 52//28 53//28 54//28
f 54//29 53//29 55//29
f 54//29 55//29 56//29
f 56//30 55//30 57//30
f 56//30 57//30 58//30
f 59//31 6//31 60//31
f 60//31 6//31 32//31
f 53//31 51//31 33//31
f 33//31 51//31 49//31
f 33//31 49//31 37//31
f 5//31 18//31 20//31
f 20//31 22//31 5//31
f 5//31 22//31 24//31
f 5//31 24//31 26//31
f 26//31 28//31 5//31
f 5//31 28//31 61//31
f 5//31 61//31 6//31
f 6//31 61//31 62//31
f 6//31 62//31 32//31
f 32//31 62//31 57//31
f 32//31 57//31 33//31
f 33//31 57//31 55//31
f 33//31 55//31 53//31
f 5//31 10//31 18//31
f 18//31 10//31 12//31
f 18//31 12//31 16//31
f 16//31 12//31 14//31
f 43//31 41//31 45//31
f 45//31 41//31 47//31
f 47//31 41//31 49//31
f 49//31 41//31 39//31
f 49//31 39//31 37//31
f 58//32 63//32 64//32
f 64//32 63//32 65//32
f 66//33 67//33 58//33
f 58//33 67//33 68//33
f 58//33 68//33 63//33
f 65//34 68//34 64//34
f 64//34 68//34 62//34
f 64//35 62//35 69//35
f 63//36 68//36 65//36
f 64//31 46//31 48//31
f 58//31 64//31 56//31
f 56//31 64//31 54//31
f 48//31 50//31 64//31
f 64//31 50//31 52//31
f 64//31 52//31 54//31
f 38//31 9//31 35//31
f 35//31 9//31 8//31
f 35//31 8//31 36//31
f 36//31 8//31 3//31
f 36//31 3//31 4//31
f 42//31 15//31 40//31
f 40//31 15//31 13//31
f 40//31 13//31 38//31
f 38//31 13//31 11//31
f 38//31 11//31 9//31
f 25//31 23//31 44//31
f 23//31 21//31 44//31
f 44//31 21//31 19//31
f 44//31 19//31 42//31
f 42//31 19//31 17//31
f 42//31 17//31 15//31
f 46//31 64//31 44//31
f 44//31 64//31 27//31
f 44//31 27//31 25//31
f 70//37 59//37 7//37
f 7//37 59//37 71//37
f 31//38 72//38 32//38
f 32//38 72//38 60//38
f 71//36 72//36 7//36
f 7//36 72//36 31//36
f 7//36 31//36 1//36
f 1//36 31//36 34//36
f 1//36 34//36 2//36
f 60//39 72//39 59//39
f 59//39 72//39 71//39
# Vertices: 72, normals: 39, texture coordinates: 0, faces: 128

